<?xml version="1.0" encoding="utf-8"?>
<!-- Generator: Adobe Illustrator 26.0.2, SVG Export Plug-In . SVG Version: 6.00 Build 0)  -->
<svg version="1.1" id="Layer_1" xmlns="http://www.w3.org/2000/svg" xmlns:xlink="http://www.w3.org/1999/xlink" x="0px" y="0px"
	 viewBox="0 0 276.2515 276.3144" style="enable-background:new 0 0 276.2515 276.3144;" xml:space="preserve">
<style type="text/css">
	.st0{fill:#F0E4D5;}
</style>
<path class="st0" d="M267.2683,223.873l-85.7041-85.709l85.7061-85.7236c11.957-11.9785,11.957-31.4678-0.002-43.4473
	C261.4695,3.1934,253.7556,0,245.5496,0c-8.207,0-15.916,3.1943-21.7051,8.9932l-85.7275,85.7275L52.4109,8.9912
	C40.4324-2.9658,20.946-2.9668,8.9675,8.9941c-11.957,11.9785-11.957,31.4678,0.002,43.4473l85.7217,85.7041L8.9675,223.874
	c-11.9551,11.9766-11.9551,31.4648,0.0049,43.4453c5.8203,5.8008,13.5352,8.9951,21.7256,8.9951
	c8.2197,0,15.9326-3.1963,21.7139-8.998l85.7051-85.7275l85.7275,85.7275c5.8018,5.8027,13.5127,8.998,21.71,8.998
	c8.2002,0,15.9121-3.1953,21.7139-8.998C279.2458,255.3389,279.2458,235.8506,267.2683,223.873z"/>
</svg>
